<svg width="800" height="520" viewBox="0 0 800 520" fill="none" xmlns="http://www.w3.org/2000/svg">
  <defs>
    <linearGradient id="bg" x1="90" y1="40" x2="748" y2="500" gradientUnits="userSpaceOnUse">
      <stop stop-color="#4C1D95"/>
      <stop offset="0.42" stop-color="#BE185D"/>
      <stop offset="1" stop-color="#F59E0B"/>
    </linearGradient>
    <radialGradient id="aura" cx="0" cy="0" r="1" gradientUnits="userSpaceOnUse" gradientTransform="translate(420 185) rotate(90) scale(190 290)">
      <stop stop-color="#FDE68A" stop-opacity="0.82"/>
      <stop offset="1" stop-color="#FDE68A" stop-opacity="0"/>
    </radialGradient>
  </defs>

  <rect width="800" height="520" fill="url(#bg)"/>
  <ellipse cx="420" cy="190" rx="280" ry="150" fill="url(#aura)"/>
  <rect y="350" width="800" height="170" fill="#0A0911" fill-opacity="0.55"/>

  <g stroke="#FDE68A" stroke-width="3" opacity="0.75">
    <path d="M95 0 320 340"/>
    <path d="M190 0 360 360"/>
    <path d="M695 0 490 350"/>
    <path d="M610 0 450 360"/>
  </g>

  <g fill="#120B1E">
    <ellipse cx="408" cy="456" rx="155" ry="22" fill="#07060D" fill-opacity="0.62"/>
    <path d="M410 196c20 0 36 15 39 35 2 14-4 25-12 35l28 102h-21l-24-74-7 81h-14l-7-81-24 74h-21l28-102c-8-10-14-21-12-35 3-20 19-35 39-35Z"/>
    <circle cx="410" cy="164" r="24" fill="#231639"/>
    <path d="M364 250c29-11 46-18 46-18l46 18c22 8 33 33 25 53-9 20-31 30-51 22l-20-8-20 8c-20 8-42-2-51-22-8-20 3-45 25-53Z" fill="#1C132F"/>
  </g>

  <g fill="#FFF7ED" opacity="0.9">
    <circle cx="202" cy="124" r="2.3"/>
    <circle cx="250" cy="86" r="2"/>
    <circle cx="594" cy="132" r="2.5"/>
    <circle cx="650" cy="96" r="2.1"/>
    <circle cx="455" cy="118" r="2.2"/>
  </g>
</svg>
